<?xml version="1.0" encoding="UTF-8"?>
<svg xmlns="http://www.w3.org/2000/svg" width="692" height="1007" viewBox="0 0 692 1007">
  <path d="M 610.00 19.00 L 586.00 10.00 L 577.00 13.00 L 589.00 46.00 L 589.00 92.00 L 578.00 124.00 L 559.00 149.00 L 564.00 156.00 L 563.00 161.00 L 559.00 163.00 L 502.00 146.00 L 437.00 145.00 L 394.00 151.00 L 344.00 164.00 L 269.00 195.00 L 232.00 218.00 L 177.00 260.00 L 142.00 295.00 L 108.00 266.00 L 87.00 237.00 L 81.00 220.00 L 86.00 217.00 L 90.00 219.00 L 114.00 250.00 L 143.00 274.00 L 177.00 239.00 L 212.00 211.00 L 153.00 169.00 L 119.00 129.00 L 102.00 84.00 L 100.00 41.00 L 104.00 19.00 L 93.00 18.00 L 77.00 27.00 L 49.00 59.00 L 34.00 91.00 L 25.00 138.00 L 24.00 180.00 L 36.00 232.00 L 59.00 275.00 L 98.00 319.00 L 147.00 360.00 L 175.00 388.00 L 202.00 421.00 L 221.00 452.00 L 257.00 539.00 L 270.00 593.00 L 277.00 648.00 L 277.00 701.00 L 269.00 760.00 L 253.00 816.00 L 237.00 851.00 L 208.00 894.00 L 182.00 920.00 L 149.00 939.00 L 125.00 945.00 L 99.00 942.00 L 79.00 931.00 L 69.00 921.00 L 57.00 891.00 L 57.00 850.00 L 73.00 801.00 L 98.00 763.00 L 102.00 761.00 L 107.00 764.00 L 112.00 784.00 L 122.00 797.00 L 139.00 781.00 L 153.00 757.00 L 161.00 729.00 L 161.00 638.00 L 170.00 591.00 L 142.00 590.00 L 109.00 602.00 L 89.00 616.00 L 54.00 655.00 L 41.00 683.00 L 35.00 687.00 L 35.00 697.00 L 25.00 729.00 L 23.00 760.00 L 25.00 764.00 L 29.00 764.00 L 43.00 748.00 L 61.00 735.00 L 66.00 738.00 L 66.00 743.00 L 42.00 773.00 L 22.00 810.00 L 17.00 828.00 L 13.00 832.00 L 10.00 877.00 L 14.00 913.00 L 22.00 935.00 L 46.00 968.00 L 64.00 980.00 L 85.00 990.00 L 110.00 996.00 L 151.00 997.00 L 197.00 985.00 L 222.00 973.00 L 243.00 958.00 L 273.00 929.00 L 296.00 899.00 L 330.00 835.00 L 349.00 772.00 L 358.00 718.00 L 359.00 692.00 L 366.00 688.00 L 403.00 684.00 L 448.00 673.00 L 482.00 661.00 L 527.00 637.00 L 566.00 609.00 L 618.00 557.00 L 645.00 516.00 L 665.00 473.00 L 680.00 411.00 L 682.00 361.00 L 677.00 325.00 L 665.00 279.00 L 647.00 241.00 L 647.00 237.00 L 670.00 209.00 L 678.00 182.00 L 680.00 144.00 L 672.00 97.00 L 660.00 72.00 L 640.00 43.00 Z M 520.00 217.00 L 539.00 227.00 L 560.00 245.00 L 577.00 271.00 L 585.00 291.00 L 590.00 315.00 L 589.00 329.00 L 592.00 332.00 L 593.00 383.00 L 590.00 388.00 L 586.00 421.00 L 578.00 444.00 L 565.00 471.00 L 545.00 501.00 L 520.00 530.00 L 497.00 550.00 L 463.00 573.00 L 430.00 590.00 L 400.00 602.00 L 362.00 612.00 L 356.00 608.00 L 348.00 546.00 L 333.00 482.00 L 311.00 425.00 L 287.00 381.00 L 256.00 341.00 L 232.00 318.00 L 232.00 314.00 L 264.00 287.00 L 308.00 257.00 L 338.00 241.00 L 374.00 226.00 L 415.00 214.00 L 435.00 213.00 L 451.00 209.00 L 457.00 211.00 L 465.00 208.00 L 499.00 211.00 Z" fill="#fb0151" fill-rule="evenodd"/>
</svg>
